<svg xmlns="http://www.w3.org/2000/svg" width="16" height="16" fill="#000" viewBox="0 0 16 16"><path d="m5.1487 13.623c-.19188 1.0882-1.4503 1.7751-2.8093 1.5355-1.359-.23964-2.3066-1.3155-2.1147-2.4037.19188-1.0882 1.4503-1.7751 2.8093-1.5355s2.3066 1.3155 2.1147 2.4037z"/><path d="m6.8852 3.7753-1.7365 9.8481-.98481-.17365 1.7365-9.8481z" fill-rule="evenodd"/><path d="m15.532 2.9927c-.12324-.087985-.28494-.10088-.42056-.03354-1.5776.79818-2.6708.087554-3.9314-.73891-1.2606-.82646-2.7443-1.7989-4.7349-.78919-.11231.056904-.19127.16336-.21314.28735l-1.4586 8.2724c-.038361.21756.10691.42502.32446.46338.21756.03836.42502-.10691.46338-.32446l.38116-2.1617c1.4817-.65769 2.5381.031217 3.753.8293.74271.48128 1.5393 1.0025 2.465 1.1658.67952.11982 1.4282.048751 2.2707-.38149.1118-.057512.19054-.16368.21314-.28735l1.0419-5.9088c.02501-.14934-.03419-.30033-.15414-.39273zm-4.2561 5.8244.46451-2.6344c-.88376-.43-1.6888-1.105-2.5725-1.535L8.70253 7.287c-.76615-.34833-1.6128-.52808-2.5996-.2299l.45843-2.5999c.99313-.36306 1.8299-.18505 2.6065.19051l.43238-2.4522c.39135.21006.77089.44139 1.1369.69296.45594.29363.92897.60551 1.4365.83716l-.43325 2.4571c.77658.37556 1.6134.55357 2.6065.19051l-.45496 2.5802c-1.0079.44677-1.8201.2731-2.6161-.13635z" stroke-width=".05"/></svg>